<?xml version="1.0" encoding="utf-8"?>
<!-- Generator: Adobe Illustrator 23.0.1, SVG Export Plug-In . SVG Version: 6.00 Build 0)  -->
<svg version="1.1" id="Calque_1" xmlns="http://www.w3.org/2000/svg" xmlns:xlink="http://www.w3.org/1999/xlink" x="0px" y="0px"
	 viewBox="0 0 149.9 150.7" style="enable-background:new 0 0 149.9 150.7;" xml:space="preserve">
<style type="text/css">
	.st0{fill:#FFFFFF;}
	.st1{fill:#009EE2;}
	.st2{fill:#1B416E;}
</style>
<g>
	<g>
		<g>
			<path class="st0" d="M133.6,150.7H16.3c-9,0-16.3-7.5-16.3-16.8V16.8C0,7.5,7.3,0,16.3,0h117.3c9,0,16.3,7.5,16.3,16.8v117.1
				C149.9,143.1,142.6,150.7,133.6,150.7z"/>
		</g>
		<g>
			<path class="st1" d="M147.6,133.9c0,8-6.3,14.5-14,14.5H16.3c-7.7,0-14-6.5-14-14.5V35.4h145.4V133.9z"/>
		</g>
		<g>
			<path class="st2" d="M2.3,16.8c0-8,6.3-14.5,14-14.5h117.3c7.7,0,14,6.5,14,14.5v18.6H2.3V16.8z"/>
		</g>
		<g>
			<polygon class="st0" points="18.7,11.9 23.6,11.9 27,21.5 27.1,21.5 30.5,11.9 35.4,11.9 35.4,26.6 32.1,26.6 32.1,15.3 
				32.1,15.3 28.2,26.6 25.7,26.6 22,15.3 22,15.3 22,26.6 18.7,26.6 			"/>
			<path class="st0" d="M37.1,16.5h3.1v1.6h0c0.3-0.6,0.7-1.1,1.2-1.4s1-0.5,1.7-0.5c0.2,0,0.4,0,0.5,0c0.2,0,0.4,0,0.5,0.1v2.9
				c-0.2-0.1-0.4-0.1-0.6-0.2c-0.2,0-0.4,0-0.7,0c-0.6,0-1.1,0.1-1.4,0.2c-0.4,0.2-0.6,0.4-0.8,0.7c-0.2,0.3-0.3,0.6-0.4,1.1
				c-0.1,0.4-0.1,0.9-0.1,1.4v4.2h-3.1L37.1,16.5L37.1,16.5z"/>
			<path class="st0" d="M42.8,24.9c0-0.3,0-0.5,0.1-0.8s0.2-0.4,0.4-0.6c0.2-0.2,0.4-0.3,0.6-0.4c0.2-0.1,0.5-0.1,0.8-0.1
				s0.5,0,0.8,0.1s0.4,0.2,0.6,0.4c0.2,0.2,0.3,0.4,0.4,0.6c0.1,0.2,0.1,0.5,0.1,0.8s0,0.5-0.1,0.8c-0.1,0.2-0.2,0.4-0.4,0.6
				c-0.2,0.2-0.4,0.3-0.6,0.4c-0.2,0.1-0.5,0.1-0.8,0.1s-0.5,0-0.8-0.1s-0.4-0.2-0.6-0.4c-0.2-0.2-0.3-0.4-0.4-0.6
				C42.9,25.4,42.8,25.1,42.8,24.9"/>
			<path class="st0" d="M63,25.6c-1,0.5-2,0.9-3,1.1S57.9,27,56.8,27c-1.1,0-2.2-0.2-3.2-0.5c-1-0.4-1.8-0.9-2.5-1.5
				c-0.7-0.7-1.3-1.5-1.6-2.4c-0.4-1-0.6-2-0.6-3.2c0-1.2,0.2-2.2,0.6-3.2c0.4-1,1-1.8,1.6-2.4c0.7-0.7,1.5-1.2,2.5-1.5
				s2-0.5,3.2-0.5c1.2,0,2.3,0.1,3.2,0.4c1,0.3,1.9,0.8,2.6,1.5l-2.3,2.5c-0.4-0.5-0.9-0.8-1.5-1c-0.6-0.2-1.2-0.4-2.1-0.4
				c-0.7,0-1.3,0.1-1.9,0.4s-1,0.6-1.5,1c-0.4,0.4-0.7,0.9-0.9,1.5c-0.2,0.6-0.3,1.2-0.3,1.9c0,0.7,0.1,1.3,0.3,1.9
				c0.2,0.6,0.5,1.1,0.9,1.5c0.4,0.4,0.9,0.8,1.5,1c0.6,0.2,1.2,0.4,1.9,0.4c0.7,0,1.3-0.1,1.8-0.2c0.5-0.2,0.9-0.3,1.2-0.5v-2.4
				h-2.6v-3H63L63,25.6L63,25.6z"/>
			<path class="st0" d="M67.3,21.6c0,0.8,0.2,1.4,0.6,1.9c0.4,0.5,1,0.7,1.8,0.7s1.4-0.2,1.8-0.7c0.4-0.5,0.6-1.1,0.6-1.9
				s-0.2-1.4-0.6-1.9c-0.4-0.5-1-0.7-1.8-0.7s-1.4,0.2-1.8,0.7C67.6,20.2,67.3,20.8,67.3,21.6 M64.2,21.6c0-0.8,0.1-1.5,0.4-2.2
				s0.7-1.2,1.2-1.7c0.5-0.5,1.1-0.8,1.8-1.1s1.4-0.4,2.2-0.4c0.8,0,1.5,0.1,2.2,0.4s1.3,0.6,1.8,1.1c0.5,0.5,0.9,1,1.2,1.7
				c0.3,0.6,0.4,1.4,0.4,2.2s-0.1,1.5-0.4,2.2c-0.3,0.6-0.7,1.2-1.2,1.7c-0.5,0.5-1.1,0.8-1.8,1.1s-1.4,0.4-2.2,0.4
				c-0.8,0-1.5-0.1-2.2-0.4c-0.7-0.2-1.3-0.6-1.8-1.1c-0.5-0.5-0.9-1-1.2-1.7C64.3,23.1,64.2,22.4,64.2,21.6"/>
			<path class="st0" d="M79.1,21.6c0,0.8,0.2,1.4,0.6,1.9c0.4,0.5,1,0.7,1.8,0.7s1.4-0.2,1.8-0.7c0.4-0.5,0.6-1.1,0.6-1.9
				s-0.2-1.4-0.6-1.9c-0.4-0.5-1-0.7-1.8-0.7s-1.4,0.2-1.8,0.7C79.4,20.2,79.1,20.8,79.1,21.6 M76,21.6c0-0.8,0.1-1.5,0.4-2.2
				s0.7-1.2,1.2-1.7c0.5-0.5,1.1-0.8,1.8-1.1s1.4-0.4,2.2-0.4c0.8,0,1.5,0.1,2.2,0.4s1.3,0.6,1.8,1.1c0.5,0.5,0.9,1,1.2,1.7
				c0.3,0.6,0.4,1.4,0.4,2.2s-0.1,1.5-0.4,2.2c-0.3,0.6-0.7,1.2-1.2,1.7c-0.5,0.5-1.1,0.8-1.8,1.1s-1.4,0.4-2.2,0.4
				c-0.8,0-1.5-0.1-2.2-0.4c-0.7-0.2-1.3-0.6-1.8-1.1c-0.5-0.5-0.9-1-1.2-1.7C76.2,23.1,76,22.4,76,21.6"/>
			<path class="st0" d="M95.9,21.6c0-0.8-0.2-1.4-0.6-1.9c-0.4-0.5-1-0.7-1.8-0.7s-1.4,0.2-1.8,0.7c-0.4,0.5-0.6,1.1-0.6,1.9
				s0.2,1.4,0.6,1.9c0.4,0.5,1,0.7,1.8,0.7s1.4-0.2,1.8-0.7C95.7,23,95.9,22.3,95.9,21.6 M98.8,26.6h-2.9v-1.3h0
				c-0.1,0.2-0.3,0.4-0.5,0.5c-0.2,0.2-0.4,0.4-0.7,0.5c-0.3,0.1-0.6,0.3-0.9,0.4c-0.3,0.1-0.7,0.1-1,0.1c-0.8,0-1.4-0.1-2-0.4
				c-0.6-0.3-1.1-0.6-1.6-1.1s-0.8-1-1-1.6c-0.2-0.6-0.4-1.3-0.4-2.1c0-0.7,0.1-1.4,0.3-2c0.2-0.6,0.5-1.2,0.9-1.7
				c0.4-0.5,0.9-0.9,1.4-1.2c0.6-0.3,1.2-0.5,1.9-0.5c0.6,0,1.3,0.1,1.8,0.3c0.6,0.2,1,0.5,1.4,1h0v-6.7h3.1L98.8,26.6L98.8,26.6z"
				/>
			<path class="st0" d="M108.2,16.5h3.1v10.1h-3.1V16.5z M107.9,13.3c0-0.5,0.2-0.9,0.5-1.3c0.4-0.4,0.8-0.5,1.3-0.5
				s0.9,0.2,1.3,0.5c0.4,0.4,0.5,0.8,0.5,1.3s-0.2,0.9-0.5,1.3c-0.4,0.4-0.8,0.5-1.3,0.5s-0.9-0.2-1.3-0.5
				C108.1,14.3,107.9,13.8,107.9,13.3 M101.5,19h-2.1v-2.5h2.1v-1.8c0-0.5,0-1.1,0.1-1.6c0.1-0.5,0.3-0.9,0.6-1.3s0.7-0.7,1.2-0.9
				c0.5-0.2,1.2-0.3,2-0.3c0.3,0,0.6,0,0.9,0s0.6,0.1,0.9,0.1l-0.1,2.6c-0.2-0.1-0.4-0.1-0.5-0.2c-0.1,0-0.3,0-0.5,0
				c-0.5,0-0.9,0.1-1.1,0.3c-0.2,0.2-0.4,0.7-0.4,1.3v1.6h2.3V19h-2.3v7.6h-3.1L101.5,19L101.5,19z"/>
			<path class="st0" d="M118.4,19.5c-0.5-0.6-1.1-0.9-1.8-0.9c-0.3,0-0.5,0.1-0.8,0.2s-0.4,0.3-0.4,0.6c0,0.2,0.1,0.4,0.4,0.5
				s0.6,0.2,1,0.3c0.4,0.1,0.8,0.2,1.3,0.3c0.5,0.1,0.9,0.3,1.3,0.5s0.7,0.5,1,0.9s0.4,0.9,0.4,1.5c0,0.6-0.1,1.2-0.4,1.6
				c-0.3,0.4-0.6,0.8-1.1,1c-0.4,0.3-0.9,0.4-1.5,0.5s-1.1,0.2-1.6,0.2c-0.7,0-1.4-0.1-2.1-0.3c-0.7-0.2-1.3-0.6-1.8-1.1l1.9-2.1
				c0.3,0.4,0.6,0.6,1,0.8c0.4,0.2,0.8,0.3,1.2,0.3c0.4,0,0.7,0,1-0.2c0.3-0.1,0.4-0.3,0.4-0.6c0-0.3-0.1-0.5-0.4-0.6
				s-0.6-0.2-1-0.3c-0.4-0.1-0.8-0.2-1.3-0.3c-0.5-0.1-0.9-0.3-1.3-0.5s-0.7-0.5-1-0.9s-0.4-0.9-0.4-1.5c0-0.6,0.1-1.1,0.4-1.5
				c0.2-0.4,0.6-0.8,1-1.1s0.9-0.5,1.4-0.6c0.5-0.1,1-0.2,1.6-0.2c0.7,0,1.3,0.1,2,0.3s1.2,0.5,1.7,1L118.4,19.5z"/>
			<path class="st0" d="M124.5,10.9v7h0c0.1-0.2,0.2-0.4,0.4-0.6c0.2-0.2,0.4-0.4,0.6-0.5s0.5-0.3,0.8-0.4c0.3-0.1,0.7-0.1,1-0.1
				c0.8,0,1.4,0.1,1.9,0.4c0.5,0.2,0.9,0.6,1.1,1s0.5,0.9,0.5,1.5c0.1,0.6,0.1,1.2,0.1,1.9v5.6H128v-5c0-0.3,0-0.6,0-0.9
				c0-0.3-0.1-0.6-0.2-0.9c-0.1-0.3-0.3-0.5-0.5-0.6c-0.2-0.2-0.5-0.2-0.9-0.2c-0.4,0-0.7,0.1-1,0.2s-0.4,0.3-0.6,0.6
				s-0.2,0.5-0.3,0.8c0,0.3-0.1,0.6-0.1,1v5h-3.1V10.9L124.5,10.9L124.5,10.9z"/>
		</g>
		<path class="st0" d="M142.6,56.6h-24.9L94.6,79.7V56.6H76.8v24C72.1,66.4,58.7,56.2,43,56.2c-19.7,0-35.7,16-35.7,35.7
			s16,35.7,35.7,35.7c15.8,0,29.1-10.2,33.9-24.3v24h17.7v-23.1l23.1,23.1h24.9l-35.3-35.4L142.6,56.6z"/>
		<path class="st1" d="M59.2,77.5c1.1,1.6,2.1,3.4,2.8,5.3c4.1,11.4-1.7,23.9-13.1,28c-8.8,3.2-18.2,0.4-24-6.2
			c5.6,7.7,15.8,11.2,25.2,7.7c11.4-4.1,17.2-16.7,13.1-28C62.3,81.8,60.9,79.4,59.2,77.5"/>
		<path class="st2" d="M20.9,87.6c1.3-7.4,6.2-13.8,13.9-16.6c9.4-3.4,19.2-0.6,24.8,7.1c-5.8-6.6-14.9-9.3-23.4-5.5
			C23.7,78,20.9,87.6,20.9,87.6z"/>
		<path class="st2" d="M77.2,91.2c-11.9-11-23-12.2-30-11.4l0,0c0,0-0.6,0.1-1.6,0.3c-0.5,0.1-1,0.2-1.4,0.3c0,0,0,0,0,0
			c-4.8,1-14.5,3.7-22.2,10C16,84.5,11.7,78.9,11.7,78.9c-4.7,13-0.4,25.4-0.4,25.4c2.8-4.3,6.5-8.2,10.4-11.5
			c2.1,1.8,11.1,8.9,22.4,10.6c0,0,0.1,0.1,0.2,0.1c2.3,0.5,4.6,0.8,6.7,0.8c15.4,0,26.2-11.9,26.3-12C77.6,92,77.6,91.5,77.2,91.2z
			"/>
		<path class="st0" d="M66.2,89.1c1.4,0,2.5,1.1,2.5,2.5s-1.1,2.5-2.5,2.5s-2.5-1.1-2.5-2.5S64.8,89.1,66.2,89.1"/>
	</g>
</g>
</svg>
